# Blender v3.3.1 OBJ File: ''
# www.blender.org
mtllib CONE.mtl
o CONO
v -0.516484 -0.426016 -0.777680
v -0.129448 -0.426016 0.032622
v 0.673118 -0.426016 -0.347931
v 0.349470 -0.426016 -1.158589
v -0.018517 3.620834 -0.632642
v 0.107912 3.620834 -0.467637
v 0.151091 3.620834 -0.637429
v -0.987986 -0.789298 -1.011932
v -0.901631 -0.789298 -0.562216
v -0.727464 -0.789298 -0.188714
v -0.553297 -0.789298 0.184789
v -0.300258 -0.789298 0.517469
v 0.126979 -0.789298 0.431405
v 0.490277 -0.789298 0.261997
v 0.853576 -0.789298 0.092588
v 1.185841 -0.789298 -0.158789
v 1.099942 -0.789298 -0.586130
v 0.925775 -0.789298 -0.959632
v 0.751608 -0.789298 -1.333134
v 0.497661 -0.789297 -1.665391
v 0.069965 -0.789298 -1.579114
v -0.291967 -0.789298 -1.410342
v -0.653898 -0.789298 -1.241570
v -0.129448 -0.426016 0.032622
v -0.018517 3.620834 -0.632642
v -0.129448 -0.426016 0.032622
v 0.673118 -0.426016 -0.347931
v 0.107912 3.620834 -0.467637
v 0.673118 -0.426016 -0.347931
v 0.151091 3.620834 -0.637429
v 0.349470 -0.426016 -1.158589
v -0.018517 3.620834 -0.632642
v 0.151091 3.620834 -0.637429
v 0.349470 -0.426016 -1.158589
v -0.516484 -0.426016 -0.777680
v -0.018517 3.620834 -0.632642
v 0.107912 3.620834 -0.467637
v -0.018517 3.620834 -0.632642
v -0.516484 -0.426016 -0.777680
v -0.516484 -0.426016 -0.777680
v -0.129448 -0.426016 0.032622
v -0.516484 -0.426016 -0.777680
v -0.129448 -0.426016 0.032622
v -0.129448 -0.426016 0.032622
v -0.300258 -0.789298 0.517469
v -0.129448 -0.426016 0.032622
v 0.673118 -0.426016 -0.347931
v -0.129448 -0.426016 0.032622
v 0.673118 -0.426016 -0.347931
v 0.673118 -0.426016 -0.347931
v 0.673118 -0.426016 -0.347931
v 1.185841 -0.789298 -0.158789
v 0.673118 -0.426016 -0.347931
v 1.099942 -0.789298 -0.586130
v 0.673118 -0.426016 -0.347931
v 0.349470 -0.426016 -1.158589
v 0.673118 -0.426016 -0.347931
v 0.349470 -0.426016 -1.158589
v 0.349470 -0.426016 -1.158589
v 0.497661 -0.789297 -1.665391
v 0.349470 -0.426016 -1.158589
v 0.349470 -0.426016 -1.158589
v 0.349470 -0.426016 -1.158589
v -0.516484 -0.426016 -0.777680
v 0.349470 -0.426016 -1.158589
v -0.987986 -0.789298 -1.011932
v -0.516484 -0.426016 -0.777680
v 0.853576 -0.789298 0.092588
v 1.099942 -0.789298 -0.586130
v 1.185841 -0.789298 -0.158789
v 0.490277 -0.789298 0.261997
v 1.099942 -0.789298 -0.586130
v 0.853576 -0.789298 0.092588
v 0.490277 -0.789298 0.261997
v 0.925775 -0.789298 -0.959632
v 1.099942 -0.789298 -0.586130
v 0.126979 -0.789298 0.431405
v 0.925775 -0.789298 -0.959632
v 0.490277 -0.789298 0.261997
v 0.126979 -0.789298 0.431405
v 0.751608 -0.789298 -1.333134
v 0.925775 -0.789298 -0.959632
v -0.300258 -0.789298 0.517469
v 0.751608 -0.789298 -1.333134
v 0.126979 -0.789298 0.431405
v -0.553297 -0.789298 0.184789
v 0.751608 -0.789298 -1.333134
v -0.300258 -0.789298 0.517469
v -0.727464 -0.789298 -0.188714
v 0.751608 -0.789298 -1.333134
v -0.553297 -0.789298 0.184789
v -0.901631 -0.789298 -0.562216
v 0.751608 -0.789298 -1.333134
v -0.727464 -0.789298 -0.188714
v -0.987986 -0.789298 -1.011932
v 0.751608 -0.789298 -1.333134
v -0.901631 -0.789298 -0.562216
v -0.987986 -0.789298 -1.011932
v 0.497661 -0.789297 -1.665391
v 0.751608 -0.789298 -1.333134
v -0.987986 -0.789298 -1.011932
v 0.069965 -0.789298 -1.579114
v 0.497661 -0.789297 -1.665391
v -0.987986 -0.789298 -1.011932
v -0.291967 -0.789298 -1.410342
v 0.069965 -0.789298 -1.579114
v -0.987986 -0.789298 -1.011932
v -0.653898 -0.789298 -1.241570
v -0.291967 -0.789298 -1.410342
vt 0.499605 0.105576
vt 0.561017 0.105576
vt 0.561017 0.990196
vt 0.622429 0.105576
vt 0.686017 0.990196
vt 0.622429 0.990196
vt 0.622429 0.105576
vt 0.686017 0.105576
vt 0.872429 0.105576
vt 0.936017 0.990196
vt 0.872428 0.990196
vt -0.000395 0.105576
vt 0.061017 0.105576
vt 0.061016 0.990196
vt 0.122429 0.105576
vt 0.186017 0.990196
vt 0.122428 0.990196
vt 0.249605 0.105576
vt 0.311017 0.105576
vt 0.311017 0.990196
vt 0.872428 0.990196
vt 0.936017 0.990196
vt 0.396544 0.046386
vt 0.432457 0.046386
vt 0.432457 0.078212
vt 0.500000 0.046386
vt 0.500000 0.078212
vt 0.567543 0.078212
vt 0.500000 0.078212
vt 0.567543 0.046386
vt 0.567543 0.078212
vt 0.603456 0.046386
vt 0.603456 0.078212
vt 0.649680 0.046386
vt 0.684958 0.046386
vt 0.684958 0.078212
vt 0.750189 0.078212
vt 0.684958 0.078212
vt 0.750189 0.046386
vt 0.750189 0.078212
vt 0.815360 0.046386
vt 0.815360 0.078212
vt 0.850567 0.046386
vt 0.850567 0.078212
vt 0.896544 0.046386
vt 0.932457 0.046386
vt 0.932457 0.078212
vt -0.067543 0.046386
vt 0.000000 0.046386
vt 0.000000 0.078212
vt 0.067543 0.078212
vt 0.000000 0.078212
vt 0.067543 0.046386
vt 0.067543 0.078212
vt 0.103456 0.046386
vt 0.103456 0.078212
vt 0.149927 0.046386
vt 0.185177 0.046386
vt 0.185177 0.078212
vt 0.250189 0.046386
vt 0.250189 0.078212
vt 0.315141 0.046386
vt 0.315141 0.078212
vt 0.350320 0.078212
vt 0.315141 0.078212
vt 0.350320 0.046386
vt 0.350320 0.078212
vt 0.815360 0.009804
vt 0.932457 0.009804
vt 0.850567 0.009804
vt 0.750189 0.009804
vt 0.932457 0.009804
vt 0.815360 0.009804
vt -0.249811 0.009804
vt 0.000000 0.009804
vt -0.067543 0.009804
vt -0.315042 0.009804
vt 0.000000 0.009804
vt -0.249811 0.009804
vt -0.315042 0.009804
vt 0.067543 0.009804
vt 0.000000 0.009804
vt -0.350320 0.009804
vt 0.067543 0.009804
vt -0.315042 0.009804
vt 0.567543 0.009804
vt 0.067543 0.009804
vt -0.396544 0.009804
vt 0.500000 0.009804
vt 0.067543 0.009804
vt 0.567543 0.009804
vt 0.432457 0.009804
vt 0.067543 0.009804
vt 0.500000 0.009804
vt 0.396544 0.009804
vt 0.067543 0.009804
vt 0.432457 0.009804
vt 0.396544 0.009804
vt 0.103456 0.009804
vt 0.067543 0.009804
vt 0.396544 0.009804
vt 0.185177 0.009804
vt 0.149927 0.009804
vt 0.396544 0.009804
vt 0.250189 0.009804
vt 0.185177 0.009804
vt 0.396544 0.009804
vt 0.315141 0.009804
vt 0.250189 0.009804
vn -0.8983 0.0952 0.4290
vn -0.7880 0.1208 0.6037
vn 0.4268 0.0862 0.9002
vn 0.9594 0.1412 0.2440
vn 0.9247 0.0929 -0.3692
vn -0.0280 0.1263 -0.9916
vn -0.4013 0.0821 -0.9123
vn 0.0000 1.0000 0.0000
vn -0.6434 0.7555 0.1236
vn -0.5769 0.7712 0.2690
vn -0.5712 0.7741 0.2728
vn -0.5705 0.7770 0.2660
vn -0.5140 0.7635 0.3910
vn 0.1255 0.7722 0.6228
vn 0.2619 0.7913 0.5524
vn 0.2566 0.7946 0.5502
vn 0.3738 0.7849 0.4941
vn 0.6033 0.7883 -0.1213
vn 0.5415 0.8018 -0.2525
vn 0.5745 0.7857 -0.2294
vn 0.5784 0.7699 -0.2697
vn 0.5159 0.7605 -0.3943
vn -0.1213 0.7896 -0.6015
vn -0.2487 0.8086 -0.5332
vn -0.2430 0.7973 -0.5524
vn -0.3510 0.7849 -0.5107
vn -0.0000 -1.0000 -0.0000
usemtl CONO
s off
f 1/1/1 2/2/1 5/3/1
f 24/4/2 6/5/2 25/6/2
f 26/7/3 3/8/3 6/5/3
f 27/9/4 7/10/4 28/11/4
f 29/12/5 4/13/5 30/14/5
f 31/15/6 32/16/6 33/17/6
f 34/18/7 35/19/7 36/20/7
f 37/21/8 7/10/8 38/22/8
f 8/23/9 9/24/9 39/25/9
f 9/24/10 10/26/10 40/27/10
f 10/26/11 41/28/11 42/29/11
f 10/26/12 11/30/12 43/31/12
f 11/30/13 12/32/13 44/33/13
f 45/34/14 13/35/14 46/36/14
f 13/35/15 47/37/15 48/38/15
f 13/35/16 14/39/16 49/40/16
f 14/39/16 15/41/16 50/42/16
f 15/41/17 16/43/17 51/44/17
f 52/45/18 17/46/18 53/47/18
f 54/48/19 18/49/19 55/50/19
f 18/49/20 56/51/20 57/52/20
f 18/49/21 19/53/21 58/54/21
f 19/53/22 20/55/22 59/56/22
f 60/57/23 21/58/23 61/59/23
f 21/58/24 22/60/24 62/61/24
f 22/60/24 23/62/24 63/63/24
f 23/62/25 64/64/25 65/65/25
f 23/62/26 66/66/26 67/67/26
f 68/68/27 69/69/27 70/70/27
f 71/71/27 72/72/27 73/73/27
f 74/74/27 75/75/27 76/76/27
f 77/77/27 78/78/27 79/79/27
f 80/80/27 81/81/27 82/82/27
f 83/83/27 84/84/27 85/85/27
f 86/86/27 87/87/27 88/88/27
f 89/89/27 90/90/27 91/91/27
f 92/92/27 93/93/27 94/94/27
f 95/95/27 96/96/27 97/97/27
f 98/98/27 99/99/27 100/100/27
f 101/101/27 102/102/27 103/103/27
f 104/104/27 105/105/27 106/106/27
f 107/107/27 108/108/27 109/109/27
